# xmcd
#
# Track frame offsets:
#	150
#	2447
#	15456
#	33497
#	50471
#	69370
#	97127
#
# Disc length: 3428 seconds
#
# Revision: 1
# Processed by: cddbd v1.5.2PL0 Copyright (c) Steve Scherf et al.
# Submitted via: EasyCDDAExtractor 12.0.1.1
#
DISCID=4c0d6207
DTITLE=Nola - Dio tebe
DYEAR=2009
DGENRE=Blues
TTITLE0=prolog
TTITLE1=dio tebe
TTITLE2=grad iz snova
TTITLE3=osmijeh
TTITLE4=sam u Sali
TTITLE5=mrav (2004)
TTITLE6=Data Track
EXTD=
EXTT0=
EXTT1=
EXTT2=
EXTT3=
EXTT4=
EXTT5=
EXTT6=
PLAYORDER=
